<svg id="Capa_1" data-name="Capa 1" xmlns="http://www.w3.org/2000/svg" viewBox="0 0 672.218 1080"><defs><style>.cls-1{fill:#96ADBB;}</style></defs><path class="cls-1" d="M531.717,291.473c-56.363,14.649-110.676,49.964-124.363,105.581-6.323,25.7-3.2,52.656-.04,78.929q7.627,63.428,15.256,126.857c2.96,24.616,5.674,50.826-5.181,73.116-6.834,14.033-12.983,24.021-23.619,35.444-18.45,19.817-44.853,41.395-76.367,61.508.775-.336,1.553-.684,2.329-1.027-.128-.023-.256-.037-.383-.06.557-.166,1.112-.339,1.668-.506,46.555-20.742,95.666-54.02,131.117-85.127,36.369-31.912,65.48-75.92,66.591-124.293,1.547-67.4-50.52-130.619-37.293-196.732,6.128-30.628,27.185-57.73,54.9-71.958a211.382,211.382,0,0,0-24.35,8.629A161.481,161.481,0,0,1,531.717,291.473ZM433.141,483.478c4.3,15.736,9.914,31.208,14.845,47.064,4.743,15.871,8.979,32.277,9.647,49.182a156.173,156.173,0,0,1-5.733,49.841,162.823,162.823,0,0,1-20.808,45.388,153.549,153.549,0,0,1-33.926,36.113,164.19,164.19,0,0,0,31.177-37.85,169.75,169.75,0,0,0,18.544-44.982,157.984,157.984,0,0,0,4.456-48.156c-.841-16.124-4.927-31.953-9.732-47.581-4.756-15.669-10.366-31.253-14.577-47.4-4.135-16.117-6.712-33.022-5.6-49.822a143.1,143.1,0,0,1,38.67-90.016c-10.251,12.918-18.716,27.19-24.162,42.6a149.427,149.427,0,0,0-9.306,47.634C426.183,451.71,428.746,467.775,433.141,483.478Z"/><path class="cls-1" d="M222.691,710.622a151.759,151.759,0,0,1-34.758-78.068c-2.637-18.036-1.216-36.476,2.037-54.206,3.278-17.788,8.346-35.039,12.933-52.25,9.546-34.177,16.069-69.421,13.755-104.744a179.857,179.857,0,0,0-10.836-51.645A144.879,144.879,0,0,0,183.851,330.1a87.5,87.5,0,0,1,10.706,23.155c4.549,15.341,5.8,31.473,5.2,47.392-1.283,31.866-9.191,63.355-21.709,92.585-6.128,14.645-12.636,29.078-17.415,44.081a156.586,156.586,0,0,0-5.488,22.876,163.251,163.251,0,0,0-1.653,23.46,159.5,159.5,0,0,0,2.224,23.456,163.527,163.527,0,0,0,6.015,22.822,159.327,159.327,0,0,0,9.561,21.632,162.331,162.331,0,0,0,13.062,19.794,145.524,145.524,0,0,1-13.827-19.361A144.258,144.258,0,0,1,150.942,583.7a146.218,146.218,0,0,1,1.358-23.944,159.672,159.672,0,0,1,5.444-23.354c4.757-15.259,11.221-29.825,17.229-44.45a286.744,286.744,0,0,0,15.2-44.737,266.1,266.1,0,0,0,7.019-46.7c.893-15.692-.048-31.619-4.21-46.814-4-15.157-11.9-29.621-24.176-39.8a63.52,63.52,0,0,1,12.543,12.641c11.706,11.976,20.765,26.512,27.5,41.951a173.425,173.425,0,0,1,12.989,52.443c1.753,18.024.924,36.209-1.369,54.1-2.366,17.893-6.457,35.519-11.138,52.806-4.741,17.269-9.771,34.35-13.181,51.684-3.527,17.3-5.017,34.937-3.077,52.406a158.748,158.748,0,0,0,34.874,83.056A578.42,578.42,0,0,0,309.6,770.517c2.891,1.028,5.8,1.993,8.728,2.869-31.282-15.568-59.566-37.306-76.923-56.744-10.4-11.643-12.583-25.638-18.2-40.2-8.925-23.131-4-49.016,1.039-73.292q12.981-62.553,25.961-125.107c5.376-25.91,10.775-52.508,6.654-78.647-8.11-51.439-51.1-89-100.119-109.965a141.092,141.092,0,0,1,29.467,27.576c-13.612-12.161-28.422-23.288-45.072-29.4,24.3,16.848,41.29,44.28,44.619,73.733,7.572,67-49.67,125.567-53.845,192.86-2.174,35.043,10.543,69.041,30.493,98.39,1.37,1.492,2.731,2.988,4.088,4.47A577.214,577.214,0,0,0,222.691,710.622Z"/><path class="cls-1" d="M370.594,766.581l9.759-2.425c-7.881.788-15.746,1.574-23.438,2.078.12-.027.242-.049.361-.076q16.968-4.039,33.649-9.127c8.949-2.8,17.8-5.884,26.582-9.13l94.587-17.62c11.916-2.22,24.215-4.592,34.239-11.406,7.707-5.239,13.691-13.854,14.629-22.873.989.484,1.959,1,2.9,1.569a23.315,23.315,0,0,0-.46-12.778c-4.538-13.509-21.4-19.406-35.4-16.7s-25.812,11.666-37.4,19.955a578.9,578.9,0,0,1-169.585,83.269c-.429.191-.856.377-1.285.566C336.634,774.883,353.921,770.724,370.594,766.581Zm-12.8-7.561,16.7-6.306c11.152-4.15,22.423-7.964,33.726-11.677,11.327-3.637,22.686-7.179,34.148-10.375,11.451-3.232,22.944-6.316,34.557-8.951-11.231,3.957-22.527,7.655-33.808,11.393l-33.866,11.1-33.923,10.933-16.985,5.421c-5.694,1.72-11.344,3.568-17.063,5.233C346.734,763.419,352.278,761.264,357.791,759.02Z"/><path class="cls-1" d="M273.587,122c-1.081-14.461-.952-29.085,1.584-43.449a81.134,81.134,0,0,1,6.687-20.773,49.973,49.973,0,0,1,9.435-13.115c-15.068,4.7-25.446,21.488-26.749,37.81a70.35,70.35,0,0,0,.622,15.721c2.242,8.917,5.5,17.7,8.676,26.365C273.758,123.707,273.662,122.855,273.587,122Z"/><path class="cls-1" d="M315.944,48.122a31.1,31.1,0,0,0-17.73-4.708,28.24,28.24,0,0,0-6,.989,49.406,49.406,0,0,0-8.882,14.065,80.134,80.134,0,0,0-5.641,20.513,186.026,186.026,0,0,0-.781,42.743c.4,5.523,1.03,11.026,1.819,16.512A761.828,761.828,0,0,1,306.887,242.9,763.4,763.4,0,0,1,320,331.953c.4-9.507.568-19.02.412-28.54-.09-10.294-.534-20.591-.9-30.906l-.656-15.478c-.134-5.17-.393-10.332-.448-15.512.808,5.117,1.391,10.254,2.078,15.384l1.587,15.44c.974,10.306,1.51,20.66,1.676,31.031a273.447,273.447,0,0,1-1.29,31.095q-.564,5.517-1.388,11,.856,12.313,1.309,24.652c8.413-19.641,9.165-41.817,9.744-63.286q2.7-99.831,5.392-199.663c.431-15.965.771-32.464-5.239-47.26-4.494-11.062-13.534-20.969-24.475-24.909a47.3,47.3,0,0,1,5.489,7.739C314.274,44.5,315.148,46.3,315.944,48.122ZM313.389,270.37a319.67,319.67,0,0,0-.616-33.695c-.784-11.2-1.8-22.392-2.712-33.627-.833-11.236-1.565-22.531-1.329-33.854l.326-8.484.66-8.463,1.182-8.4c.524-2.78,1.091-5.548,1.683-8.3q-.356,4.222-.805,8.406l-.429,8.413-.185,8.408.135,8.406c.367,11.2,1.18,22.4,2.086,33.611.828,11.219,1.762,22.47,1.94,33.776A188.374,188.374,0,0,1,313.389,270.37Zm5.858-189.13c-2.093-3.19-6.113-4.376-9.633-3.963-3.6.406-6.726,2.635-9.029,5.355-4.672,5.546-7.076,12.763-8.364,19.911-2.3,14.5-1.965,29.541-.873,44.274.533,7.4,1.389,14.775,2.45,22.128s2.527,14.646,3.887,21.963c2.918,14.6,6.508,29.081,10.027,43.6-2.449-7.061-4.627-14.206-6.81-21.358q-3.07-10.785-5.724-21.7a310.487,310.487,0,0,1-7.152-44.382c-.484-7.5-.715-15.013-.53-22.529.3-7.494.527-15.056,2.219-22.5,1.662-7.374,4.4-14.788,9.671-20.512,2.663-2.752,6.222-4.954,10.155-5.134C313.35,76.166,317.473,77.84,319.247,81.24Z"/><path class="cls-1" d="M553.262,822.245c14.8-2.552,32.156-9.142,36.307-22.706.678.576,1.326,1.184,1.959,1.807a20.827,20.827,0,0,0,1.064-4.869c1.167-12.269-9.447-23.159-21.266-26.65s-24.478-1.4-36.62.709L466.489,782.4c-26.928,4.685-64.177,7.07-96.694,3.433l47.26,6.9c9.924,1.406,19.883,2.853,29.79,4.008a118.141,118.141,0,0,0,14.917.8,76.587,76.587,0,0,0,14.914-1.437,64.381,64.381,0,0,1-14.834,3.06,115.431,115.431,0,0,1-15.2.121c-10.119-.562-20.073-1.924-30.055-3.253-9.962-1.448-19.9-3.067-29.762-5.091l-14.761-3.167c-4.614-1.149-9.237-2.236-13.816-3.52a145.027,145.027,0,0,1-26.737-6.8c3.339,2.211,25.687,8.948,29.079,11.076a240.226,240.226,0,0,0,22.485,12.46l.294.039C435.555,825.738,496.135,832.092,553.262,822.245Zm-139.3-23.163c7.939,1.307,15.82,2.92,23.682,4.55,15.7,3.3,31.3,7.029,47.158,8.593,15.777,1.831,31.9,1.668,47.269-2.248,7.66-1.951,15.26-4.627,21.556-9.393a30.155,30.155,0,0,0,8.1-8.479,18.776,18.776,0,0,0,2.857-11.34,18.288,18.288,0,0,1-2.093,11.774,31.387,31.387,0,0,1-7.861,9.326c-6.363,5.241-14.145,8.285-21.887,10.577-15.683,4.57-32.256,4.68-48.3,3.1-16.093-1.855-31.8-5.592-47.37-9.4-15.572-3.832-31.149-7.552-47.1-9.487A208.235,208.235,0,0,1,413.96,799.082Z"/><path class="cls-1" d="M316.693,774.467c-.172-.094-.341-.192-.513-.286l-.581.229C315.964,774.426,316.326,774.457,316.693,774.467Z"/><path class="cls-1" d="M109,628.627A23.482,23.482,0,0,0,95.938,638.8c-6.154,10.442-2.526,24.423,5.337,33.647s19.1,14.768,30,20.063l136.368,66.218c14.969,7.268,30.5,14.66,47.051,15.629.488-.066.975-.122,1.463-.194-2.2-1.2-4.375-2.426-6.555-3.651-22.746-8.086-44.286-20.69-64.026-35.231q6.2,4.835,12.562,9.44a204.363,204.363,0,0,0,39.519,22.7c-3.587-1.3-7.18-2.625-10.758-4l-10.432-4.843-10.048-5.614-9.734-6.143c-12.781-8.519-24.611-18.3-36.423-27.982C208.617,708.95,196.983,699.1,184.9,689.86l-9.176-6.783-9.462-6.376-9.734-5.979-10.088-5.411q5.257,2.264,10.5,4.63l10.17,5.363,9.795,6.029,9.515,6.461c9.791,6.961,19.076,14.555,28.307,22.169-9.681-8.748-18.718-17.649-27.007-26.272a238.773,238.773,0,0,1-25.315-31.1c-8.346-9.089-17.1-18.035-28.376-22.795a37.229,37.229,0,0,0-17.941-2.669c.267.193.539.379.8.576A34.721,34.721,0,0,0,109,628.627Z"/><path class="cls-1" d="M305.035,778.481c3.543-1.3,7.054-2.684,10.564-4.071-.3-.014-.6-.03-.906-.048a132.1,132.1,0,0,1-37.254-.563q2.637,1.717,5.291,3.411l.575.11,3.952.619a44.32,44.32,0,0,0,4.645-2.251,34.409,34.409,0,0,1-3.749,2.391l5.068.794-12.564,4.493q-2.274-.234-4.509-.619c-.4.109-.794.223-1.192.326a164.084,164.084,0,0,1-18.31,3.012,188.553,188.553,0,0,1-37.091.492,193.87,193.87,0,0,1-36.492-6.656c-5.925-1.778-11.82-3.647-17.555-5.942a182.717,182.717,0,0,1-16.8-7.713c5.77,2.16,11.474,4.419,17.354,6.174,5.8,1.966,11.723,3.541,17.656,5a246.555,246.555,0,0,0,36.121,5.816,237.208,237.208,0,0,0,36.58.286c5.2-.366,10.415-.838,15.559-1.637a103.7,103.7,0,0,1-23.052-8.687c-18.674-4.8-37.058-12.017-54.92-19.167L129.72,728.318c-11.441-4.58-23.394-9.243-35.679-8.274a31.942,31.942,0,0,0-5.129.84c-6.6,3.81-11.645,9.871-12.5,17.348-1.869,16.377,15.5,27.855,30.812,33.957C169.9,797.163,241.7,801.717,305.035,778.481ZM92.744,742.053c3.128-5.945,9.6-9.559,16.136-10.919,6.686-1.349,13.6-.232,19.98,1.66,6.454,1.883,12.435,4.725,18.524,7.2l18.219,7.636c12.052,5.309,24.169,10.467,36.169,15.9s23.982,10.9,35.819,16.718c-12.378-4.548-24.612-9.434-36.825-14.369s-24.312-10.134-36.474-15.187l-18.1-7.908c-6.046-2.627-12.032-5.359-18.115-7.544-6.085-2.117-12.546-3.445-18.918-2.491C102.832,733.543,96.511,736.556,92.744,742.053Z"/><path class="cls-1" d="M316.244,774.156l-.088.012.024.013Z"/><path class="cls-1" d="M658.225,343.22a144.228,144.228,0,0,0-37.891-43.958c-7.753-5.89-16.395-11.088-25.975-14.033a75.552,75.552,0,0,0-29.221-2.831,111.829,111.829,0,0,0-33.421,9.075c6.047-1.571,12.117-2.908,18.164-4a97.864,97.864,0,0,0-13.547,5.735,109.824,109.824,0,0,1,29.135-4.408,68.068,68.068,0,0,1,26.084,4.492,77.834,77.834,0,0,1,22.429,13.863c13.579,11.819,25.341,25.922,33.44,41.845,8.316,15.719,13.082,33.347,11.864,50.574a67.086,67.086,0,0,1-12.918,35.81c-1.2,1.791-2.651,3.4-3.968,5.107-1.48,1.572-2.845,3.261-4.452,4.715a71.763,71.763,0,0,1-33.708,18.725,38.921,38.921,0,0,1-12.371,1.352c-7.809-.648-15.859-5.126-22.007-10.992a34.916,34.916,0,0,1-10.656-22.66c-1.329-17.33,10.542-36,28.911-40.906a38.772,38.772,0,0,0-13.381,4.578,42.153,42.153,0,0,0-11.025,9.277,43.337,43.337,0,0,0-10.219,27.2,40.631,40.631,0,0,0,10.784,27.836A53.881,53.881,0,0,0,576,469.313a39.5,39.5,0,0,0,14.806,5.385,48.284,48.284,0,0,0,15.5-.732,73.289,73.289,0,0,0,14.471-4.11A83.975,83.975,0,0,0,646.1,453.828a79.67,79.67,0,0,0,18.07-24.11A81.64,81.64,0,0,0,672,400.481C673.45,380.183,667.491,360.384,658.225,343.22Z"/><path class="cls-1" d="M156.74,289.432a103.407,103.407,0,0,0-13.855-7.956,84.149,84.149,0,0,0-13.637-4.918,73.289,73.289,0,0,0-14.531-2.171c-9.911-.552-19.723,1.432-28.918,4.335A143.824,143.824,0,0,0,35.806,307.03c-14.462,12.8-26.614,29.189-32.434,48.422A80.2,80.2,0,0,0,8.289,414,84.376,84.376,0,0,0,25.92,437.871,75.109,75.109,0,0,0,37.682,447a63.523,63.523,0,0,0,13.658,6.539,36.185,36.185,0,0,0,15.7,1.291,54.154,54.154,0,0,0,14.524-3.982,35.917,35.917,0,0,0,12.524-8.959,33.454,33.454,0,0,0,7.047-13.5,45.3,45.3,0,0,0,1.29-14.635,59.93,59.93,0,0,0-2.605-14.1,66.047,66.047,0,0,0-5.551-13.032c-2.406-4-5.127-8.072-9.113-10.572,3.6,2.972,5.686,7.226,7.507,11.37a67.379,67.379,0,0,1,3.94,13.038c1.61,8.847,1.83,18.131-1.108,26.189a28.912,28.912,0,0,1-6.51,10.487,28.458,28.458,0,0,1-10.4,6.355,47.4,47.4,0,0,1-12.416,2.485,26.7,26.7,0,0,1-11.722-1.583A54.133,54.133,0,0,1,43.423,438.3a79.848,79.848,0,0,1-9.8-8.338,72.9,72.9,0,0,1-14.53-21.1,69.271,69.271,0,0,1-3.479-49.749c4.87-16.4,15.316-31.162,28.353-43.013C56.876,304,72.522,294.741,89.1,288.233a75.3,75.3,0,0,1,25.516-5.376,65.316,65.316,0,0,1,13.038.946,79.21,79.21,0,0,1,12.8,3.544c.227.082.45.174.677.257a98.689,98.689,0,0,0-16.993-9.485A247.348,247.348,0,0,1,156.74,289.432Z"/><path class="cls-1" d="M327.27,710.3a11.062,11.062,0,1,0-10.793-11.324A11.06,11.06,0,0,0,327.27,710.3Z"/><path class="cls-1" d="M337.71,644.163a11.062,11.062,0,1,0-11.324,10.794A11.062,11.062,0,0,0,337.71,644.163Z"/><path class="cls-1" d="M330.509,575.387A11.062,11.062,0,1,0,341.3,586.711,11.062,11.062,0,0,0,330.509,575.387Z"/><path class="cls-1" d="M332.376,528.221a11.062,11.062,0,1,0,10.793,11.324A11.061,11.061,0,0,0,332.376,528.221Z"/><path class="cls-1" d="M322.543,495.682a11.062,11.062,0,1,0,11.324-10.793A11.062,11.062,0,0,0,322.543,495.682Z"/><path class="cls-1" d="M239.045,851.867c-12.519,7.235-26.137,11.819-40.107,15.6-13.167,3.681-26.69,6.538-39.945,10.125-4.017,1.122-8.007,2.321-11.949,3.642-11.9,3.99-24.984,10.968-27.169,23.332-1.608,9.1,3.785,18.472,11.573,23.447s17.49,6.137,26.7,5.36a74.7,74.7,0,0,0,12.3-2.109c22.973-6.762,42.775-23.665,59.655-41.3,23.351-24.392,52.973-57.919,72.686-88.622q1.509-1.307,3.041-2.58c-.236.8-.481,1.607-.723,2.41,2.757-4.272,5.322-8.49,7.656-12.625C296.178,808.736,261.647,838.8,239.045,851.867Zm1.9,12.6c-10.812,10.642-21.593,21.37-33.309,31.219-11.878,9.567-24.893,18.225-39.682,22.938a37.59,37.59,0,0,1-11.569,1.749,19.84,19.84,0,0,1-11.249-3.489,15.585,15.585,0,0,1-5.627-10.138,12.158,12.158,0,0,1,.569-5.772,8.9,8.9,0,0,1,3.584-4.4c-3.144,2.322-4.031,6.488-3.28,10.038a14.347,14.347,0,0,0,5.719,8.956,18.186,18.186,0,0,0,10.3,2.7,35.3,35.3,0,0,0,10.78-2.088,111.468,111.468,0,0,0,20.136-9.8,166.23,166.23,0,0,0,18.208-13.268c11.716-9.485,22.457-20.233,33.657-30.489,11.154-10.3,22.345-20.563,33.79-30.56C262.476,843.053,251.729,853.781,240.945,864.467Z"/><path class="cls-1" d="M312.779,788.523l.953-1.7c-.317.573-.649,1.152-.975,1.728Z"/><path class="cls-1" d="M256.9,912.226c-10.411,15.556-22.224,30.359-29.95,47.409a83.877,83.877,0,0,0-7.633,29.666c5.144-26.551,31.094-54.463,43.93-71.92a315.4,315.4,0,0,0,26.96-44.1c2.482-4.886,5.189-10.141,7.79-15.56a330.361,330.361,0,0,1-33.842,65.521c-10.411,15.557-22.224,30.359-29.95,47.41-7.708,17.011-10.958,37.14-3.593,54.3a23.987,23.987,0,0,0,4.1,3.293c10.712,6.718,25.322,3.117,35.281-4.674,22.478-17.585,25.791-49.75,27.292-78.251q3.6-68.3,7.193-136.6l-3.605,7.29A330.41,330.41,0,0,1,256.9,912.226Zm3,106.484a50.614,50.614,0,0,1-12.42-42.422c1.562-8.834,5.466-17.056,9.328-25.154q19.855-41.619,39.71-83.239Z"/><path class="cls-1" d="M323.027,799.821q.06,2.743.061,5.545c.868,1.329,1.681,2.7,2.469,4.079Q324.516,804.582,323.027,799.821Z"/><path class="cls-1" d="M340.125,817.974c3.885,8.456,7.58,17.006,11.423,25.513-7.288-12.219-14.439-25.745-21.716-38.067.012-1.756-.006-3.513-.039-5.27-2.414-3.951-4.846-7.74-7.305-11.252.2,2.525.347,5.116.445,7.753a103.466,103.466,0,0,1,4.492,13.716c.357,1.443.664,2.9.949,4.355,1.877,3.933,3.519,7.979,5,12.078a226.831,226.831,0,0,1,7.274,26.462c1.939,8.9,3.869,17.8,5.547,26.756,1.714,8.948,3.374,17.907,4.678,26.946-2.647-8.74-4.936-17.56-7.172-26.392-2.273-8.823-4.288-17.707-6.306-26.582-1.951-8.884-3.973-17.712-6.462-26.4-.4-1.412-.835-2.815-1.28-4.214a118.551,118.551,0,0,1,.532,16.28c-.254,9.828-1.623,19.523-2.468,29.187a189.275,189.275,0,0,0-.646,28.969c.4,9.665,1.431,19.322,2.7,28.951a181.594,181.594,0,0,0,5.763,28.377,76.908,76.908,0,0,0,12.878,25.628,52.9,52.9,0,0,0,22.717,17.457c-9.385-2.818-17.6-8.953-23.979-16.431A78.472,78.472,0,0,1,333.1,955.921c-3.218-9.339-4.909-19.076-6.334-28.743-1.374-9.676-2.518-19.4-3.024-29.211a191.048,191.048,0,0,1,.952-29.415c1.012-9.73,2.277-19.368,2.927-29.016a105.917,105.917,0,0,0-1.077-24.886c-1.019-2.742-2.2-5.419-3.461-8.068-.146,29.43-4.976,63.426-5.434,90.543-.553,32.761,2.878,66.763,19.222,95.161,8.043,13.977,21.232,27.235,37.356,26.965a28.266,28.266,0,0,0,5.687-.692,36.064,36.064,0,0,0,14.428-9.13q-1.123,1.9-2.421,3.667a39.239,39.239,0,0,0,9.564-9.759c6.17-9.026,8.75-20.1,9.329-31.015,2.243-42.3-23.131-80.525-47.431-115.218C355.451,845.781,347.808,831.686,340.125,817.974Z"/><path class="cls-1" d="M188.608,844.715c34.9-8.878,68.014-25.773,98.762-46.769q-.714,1.023-1.416,2.051,3.345-2.229,6.657-4.514a289.9,289.9,0,0,1-37.67,12.581,295.1,295.1,0,0,1-133.16,4.869c-6.825-1.337-13.756-2.926-20.664-2.12-.813.1-1.627.234-2.436.411-5.022,1.7-9.476,5.018-11.428,9.861-3.046,7.556,1.043,16.542,7.573,21.413s14.9,6.46,23.006,7.307A207.277,207.277,0,0,0,188.608,844.715Zm-21.577-9.806a129.255,129.255,0,0,0,15.926-2.711c10.491-2.625,21.013-4.777,31.529-7.486,10.517-2.587,21.146-4.8,31.5-7.616,10.33-2.865,20.448-6.82,29.166-13.334a60.082,60.082,0,0,1-13.279,9.487,104.856,104.856,0,0,1-15.139,6.289c-10.387,3.454-20.973,5.745-31.467,8.415-10.485,2.625-21.209,4.734-31.872,6.774a133.482,133.482,0,0,1-32.527,1.613C156.289,836.012,161.682,835.644,167.031,834.909Z"/><path class="cls-1" d="M482.105,858.06c-33.322-18.474-68.627-38.233-104.364-54.8a78.4,78.4,0,0,1,15.285,11.959,69.141,69.141,0,0,1,9.937,13.209c2.734,4.759,5.072,9.652,7.365,14.52,4.6,9.626,9.663,19.37,18.583,25.716a40.051,40.051,0,0,1-12.228-10.694,106.877,106.877,0,0,1-8.629-13.858c-5.121-9.534-9.9-19.121-17.415-26.564-7.333-7.6-16.455-13.3-25.913-18.246-4.74-2.486-9.659-4.658-14.615-6.753-4.922-2.191-9.955-4.142-14.929-6.266q5.2,1.444,10.363,3.068-7.04-2.8-14.074-5.352c1.524,1.539,3.053,3.3,4.582,5.186a57.8,57.8,0,0,1,20.524,8.525,87.7,87.7,0,0,1,16.768,15.14c9.872,11.432,17.6,24.31,26.272,36.36,8.459,12.241,17.363,24.171,27.789,34.664,10.386,10.424,22.878,19.162,37.385,23.024a66.939,66.939,0,0,1-21.059-7.7,98.793,98.793,0,0,1-18.069-13.516c-11.067-10.279-20.028-22.458-28.747-34.571-8.632-12.247-16.243-25.108-25.568-36.58-9.105-11.434-20.876-21.179-35.275-25.323q1.076,1.329,2.15,2.741c.733-.209,1.55-.376,1.692-.22.895,1.924,1.833,3.828,2.792,5.721,3.4,5.043,8.357,8.986,10.767,14.979q1.019,2.431,2.082,4.846c1.366,1.964,2.7,3.821,3.991,5.482a188.347,188.347,0,0,1,10.8,16.128c25.5,30.468,58.767,55.651,92.783,75.239,13.018,7.5,42.54,8.1,54.4.318.443,2.532-2.773,14.247-3.521,16.712-3.6,11.853-16.008,14.483-21.087,15.542,4.749,3.022,13.586-2.218,19.4-8.718,2.761-3.086,5.408-19.217,7.567-22.75,2.817-4.613,3.173-10.387,2.187-15.7C518.449,879.99,499.485,867.7,482.105,858.06Z"/><path class="cls-1" d="M339.915,791.731c-.633.175-1.139.309-1.545.412,1.945,2.57,3.883,5.314,5.8,8.125q-.739-1.4-1.459-2.816A20.813,20.813,0,0,1,339.915,791.731Z"/><path class="cls-1" d="M261.288,226.777a436.1,436.1,0,0,1,8.1,48.207c-6.8-27.927-15.76-55.2-28.456-80.915a95.21,95.21,0,0,0-18.3-20.924,43.558,43.558,0,0,0-13.613-8.391,145.935,145.935,0,0,0-15.945-4.351c5.577.048,11.219.313,16.75,1.875a33.986,33.986,0,0,1,7.99,3.315,52.53,52.53,0,0,1,6.968,5,65.526,65.526,0,0,1,6.682,6.565c-5.878-8.808-13.162-16.478-22.852-20.339a30.158,30.158,0,0,0-28.8,4.29c-1.127,13.33,11.052,23.638,21.385,32.253a251.6,251.6,0,0,1,25.88,24.951c-.236-.316-.469-.634-.706-.949l-5.744-7.3-6.021-7.086-6.2-6.954q-3.249-3.336-6.432-6.763,3.555,3.025,7.056,6.137l6.773,6.466,6.421,6.826,6.154,7.079A217.438,217.438,0,0,1,249.755,246.6c1.088,1.914,2.141,3.849,3.177,5.792A253.265,253.265,0,0,1,277.9,303.64l12.224,28.384c-8.033-53.277-19.109-106.909-43.607-154.9-.836-1.637-1.7-3.278-2.6-4.91.376.877.748,1.754,1.108,2.631A329.948,329.948,0,0,1,261.288,226.777Zm-4.43,23.356c-1.916-4.367-4.162-8.592-6.408-12.851-4.493-8.507-8.732-17.158-13-25.755a244.545,244.545,0,0,0-13.76-25.1,90.005,90.005,0,0,0-18.838-21.41,63.556,63.556,0,0,1,11.476,8.873,94.423,94.423,0,0,1,9.475,11.08c5.784,7.845,10.331,16.464,14.635,25.083,4.213,8.669,8.362,17.332,12.31,26.113,1.962,4.389,3.986,8.795,5.623,13.371a51.9,51.9,0,0,1,3,14.188A60.025,60.025,0,0,0,256.858,250.133Z"/><path class="cls-1" d="M471.43,148.61c-2.008-4.271-5.372-7.716-9.914-8.959-5.271-1.443-10.923.288-15.726,2.894a52.124,52.124,0,0,0-13,10.218,38.751,38.751,0,0,1,13.55-3.434,18.559,18.559,0,0,1,6.988,1.165,9.332,9.332,0,0,1,5.168,4.551c-2.73-3.895-7.756-4.638-12.054-4.094a37.443,37.443,0,0,0-12.634,4.151,49.418,49.418,0,0,0-6.433,4.123c-1.832,2.446-3.548,5-5.17,7.623A411.47,411.47,0,0,0,384.3,276.739c1-2.943,2.009-5.883,2.995-8.831l6.86-19.358c4.614-12.889,9.49-25.679,14.231-38.52,4.981-12.653,10.016-25.985,19.6-36.391a38.72,38.72,0,0,1,8.023-6.857c3.019-1.828,6.788-3.1,10.477-2.174a11.077,11.077,0,0,1,7.381,7.407c1.154,3.318.774,7.3-1.56,9.9,4-5.793.025-14.56-6.181-15.724-3.094-.612-6.318.564-9,2.362a36.516,36.516,0,0,0-7.235,6.783c-8.726,10.246-13.675,23.1-18.395,35.875-4.985,12.748-9.836,25.547-14.948,38.248l-7.729,19.026c-1.8,4.22-3.561,8.457-5.36,12.679-.458,2.52-.883,5.046-1.293,7.575q1.249-3.306,2.561-6.588a240.611,240.611,0,0,1,17.476-35.121c-4.513,12.311-9.527,24.3-14.387,36.377-2.546,6.186-5.048,12.386-7.6,18.576q-.61,4.749-1.11,9.512l1.178,7.752c13.928-56.056,54.018-101.126,88.474-147.482,5.361-7.213,10.776-14.9,12.014-23.8s-3.19-19.26-11.857-21.633a15.176,15.176,0,0,0-4.164-.519C470.775,132,472.618,140.794,471.43,148.61Z"/><path class="cls-1" d="M551.218,716.608c-9.6,7.4-21.739,10.5-33.5,13.418l-137.363,34.13q4.953-.495,9.9-.97l68.784-6.073,68.781-6.075c11.32-1.2,23.044-2.779,32.849-8.947a35.651,35.651,0,0,0,11.743-12.315,24.552,24.552,0,0,0,3.089-16.588,23.759,23.759,0,0,0-9.325-14.071,26.165,26.165,0,0,0-2.314-1.546A34.808,34.808,0,0,1,551.218,716.608Z"/><path class="cls-1" d="M251.762,96.621c5.473,14.294,11.552,28.157,16.7,42.416,5.276,14.2,10,28.6,14.3,43.094,4.383,14.47,8.17,29.1,11.666,43.777,3.63,14.642,6.5,29.451,9.326,44.232,5.561,29.6,9.4,59.442,12.14,89.363l3.182,34.748L331.929,361.9c6.2-15.612,7.765-32.092,7.638-47.669.024-7.836-.516-15.518-.96-23.106l-1.418-22.7c-.387-5.788-.835-11.573-1.245-17.36q-.891,32.976-1.781,65.951c-.616,22.8-1.418,46.4-11.392,66.908q-.129-6.9-.391-13.8c-.521,1.217-1.065,2.426-1.647,3.623q-.2-10.969-.734-21.929c-.828,4.456-1.811,8.879-3.009,13.246,1.057-7.794,1.892-15.586,2.461-23.388A762.852,762.852,0,0,0,306.887,242.9a761.288,761.288,0,0,0-26.917-96.781c1.024,6.045,2.192,12.073,3.429,18.086,2.9,14.077,6.4,28.053,9.559,42.125-2.279-6.844-4.347-13.747-6.446-20.65-1.969-6.938-3.9-13.892-5.616-20.91-1.782-7-3.2-14.1-4.434-21.231q-1.083-6.129-1.867-12.317c-3.958-10.812-7.8-21.82-9.429-33.031a79.8,79.8,0,0,1-2.66-25.894C264,53.584,277.426,34.245,296.175,33.24A29.541,29.541,0,0,1,307.8,35.006a48.926,48.926,0,0,0-6.865-6.486c-.114-.089-.234-.17-.349-.258-.9-.688-1.779-1.41-2.731-2.028-6.329-4.139-14.048-6.446-21.617-5.465a28.881,28.881,0,0,0-2.938.546c-.669.156-1.319.358-1.97.56-.3.094-.606.182-.9.286-.639.222-1.265.469-1.884.734-.38.16-.754.332-1.128.508-.473.227-.946.451-1.406.7a32.214,32.214,0,0,0-9.3,7.445,47.493,47.493,0,0,0-10.38,20.131,58.5,58.5,0,0,0-.616,22.816A112.971,112.971,0,0,0,251.762,96.621Z"/><path class="cls-1" d="M591.528,801.346c-4.533,13.082-21.568,19.469-36.11,21.975-58.015,10-119.614,3.343-172.343-22.332-.5-.067-1-.125-1.5-.2,7.209,4.8,14.718,9.167,22.355,13.293a299.716,299.716,0,0,0,31.695,14.329,283.993,283.993,0,0,0,33.432,10.131,281.166,281.166,0,0,0,34.55,5.992,273.876,273.876,0,0,0,35.13,1.864l8.813-.2,8.8-.564a83.076,83.076,0,0,0,17.4-2.531,48.2,48.2,0,0,0,15.991-7.139,28.022,28.022,0,0,0,6.144-6.254,23.189,23.189,0,0,0,3.255-8.117l0-.016c0-.015,0-.029,0-.044a22.308,22.308,0,0,0-4.328-16.377A29.462,29.462,0,0,0,591.528,801.346Z"/><path class="cls-1" d="M489.859,934c1.428-12.692-25.7-.372-36.863-6.58s-20.544-15.128-29.584-24.152c-18.243-18.213-35.737-37.386-49.7-59.052-1.138-1.765-2.252-3.546-3.364-5.33q-6.443-7.7-12.189-15.843,4.861,10.514,10.545,20.661a285.866,285.866,0,0,0,41.992,55.84,273.812,273.812,0,0,0,25.832,23.881l6.908,5.478,7.13,5.188a82.976,82.976,0,0,0,15,9.172,48.221,48.221,0,0,0,16.862,4.726,28.007,28.007,0,0,0,8.722-.885c.374-.117.989-.244,1.771-.407C490.416,945.105,489.047,941.216,489.859,934Z"/><path class="cls-1" d="M344.166,800.268a209.326,209.326,0,0,0,13.988,22.776q-1.327-2.871-2.6-5.767C351.949,812.087,348.11,806.062,344.166,800.268Z"/><path class="cls-1" d="M338.37,792.143c-.048-.065-.1-.128-.147-.192C337.071,792.279,336.135,792.708,338.37,792.143Z"/><path class="cls-1" d="M277.439,773.8q-19.35-12.609-37.758-26.605L128.594,693.252c-10.9-5.294-22.135-10.838-30-20.062S87.1,649.984,93.259,639.542c3.427-5.815,9.212-9.362,15.742-10.915a32.371,32.371,0,0,1,7.084-1.5,43.455,43.455,0,0,0-14.562-7.05,36.17,36.17,0,0,0-15.461-.473c-.308.058-.62.1-.925.167-.258.059-.523.076-.78.141a24.453,24.453,0,0,0-8.285,3.661c-.319.215-.625.446-.932.677-.261.2-.519.4-.771.607-.389.319-.767.648-1.135.994-.181.171-.353.352-.529.529-.359.362-.717.724-1.052,1.115a21.6,21.6,0,0,0-1.4,1.788h0l-.008.013.008-.013a24.625,24.625,0,0,0-3.9,16.468c.067.7.226,1.388.338,2.083.049.294.087.587.143.88a36.356,36.356,0,0,0,5.307,13.16c6.463,9.7,16.465,16.221,26.281,22.076l59.232,35.475,56.334,33.726c10.5,4.677,21.027,9.209,31.685,13.194A215.068,215.068,0,0,0,277.439,773.8Z"/><path class="cls-1" d="M138.416,724.835,202.7,750.566c6.747,2.7,13.569,5.41,20.452,8q-3.123-1.851-6.262-3.679l-2.9-1.737c-5.849-2.605-11.692-5.252-17.548-7.874l-59.425-26.685c-9.9-4.294-20.782-7.8-31.715-6.285a32.474,32.474,0,0,0-14.927,6.217,24.427,24.427,0,0,0-3.015,2.784c.515-.153,1.034-.291,1.555-.42a33.231,33.231,0,0,1,13.824-4.324C115.022,715.591,126.974,720.255,138.416,724.835Z"/><path class="cls-1" d="M286.629,778.871q3.294.084,6.592,0c-1.725-.219-3.449-.459-5.17-.734C287.585,778.4,287.106,778.633,286.629,778.871Z"/><path class="cls-1" d="M245.672,766.341c-7.569-2.337-15.082-4.983-22.522-7.778,7.81,4.63,15.577,9.334,23.773,13.633q.995.516,2,1.021a170.678,170.678,0,0,0,36.083,5.6q1.065-.385,2.115-.82c-.062-.01-.124-.018-.185-.029q-1.818-.3-3.631-.645l-.534-.084-.041-.026a198.443,198.443,0,0,1-26.537-7.141Q250.907,768.31,245.672,766.341Z"/><path class="cls-1" d="M179.811,161.112c.01-.119.013-.235.026-.354,1.57-15.4,21.789-22.984,36.169-17.254,12.673,5.049,21.238,16.605,27.911,28.713a97.983,97.983,0,0,0-12.5-21.972,53.316,53.316,0,0,0-10.635-10.276,42.177,42.177,0,0,0-6.562-3.853,32.173,32.173,0,0,0-7.564-2.406c-10.248-1.8-21.251.486-29.373,8.116a23.312,23.312,0,0,0-7.079,14.943,27.071,27.071,0,0,0,2.862,14.185A19.6,19.6,0,0,1,179.811,161.112Z"/><path class="cls-1" d="M272.884,322.483l-2.379-5.524A252.715,252.715,0,0,0,249.5,272.187a284.764,284.764,0,0,1,13.54,32.665v0l10.21,29.171v0C273.156,330.177,273.027,326.33,272.884,322.483Z"/><path class="cls-1" d="M372.433,318.6A411.373,411.373,0,0,1,415.457,178.88c2.1-4.047,4.323-8.109,6.749-12.032.22-.427.427-.86.648-1.287q1.25-2.41,2.565-4.82a60.84,60.84,0,0,0-11.171,12.252c-5.152,7.321-8.693,15.722-11.572,24.328-1.454,4.309-2.677,8.712-3.8,13.149L395.4,223.8a184.375,184.375,0,0,1,4.822-27.213,80.719,80.719,0,0,1,11.3-25.5,55.7,55.7,0,0,1,17.309-16.289c6.249-10.365,13.857-19.866,24.364-25.568a25.385,25.385,0,0,1,11.562-3.413,23.453,23.453,0,0,0-3.535-3,19.1,19.1,0,0,0-8.828-2.951,23.64,23.64,0,0,0-8.683,1.054,42.339,42.339,0,0,0-13.673,7.642c-7.955,6.4-13.81,14.571-18.468,22.93a273.546,273.546,0,0,0-12.042,25.591c-3.691,8.607-6.955,17.39-9.9,26.269A365.122,365.122,0,0,0,370.34,313.094l1.424,7.711C371.977,320.064,372.213,319.334,372.433,318.6Z"/><path class="cls-1" d="M170.442,931.263a75.382,75.382,0,0,1-14.974,2.846c-9.21.778-18.911-.383-26.7-5.359S115.588,914.4,117.2,905.3c2.184-12.364,15.263-19.341,27.168-23.331,4.818-1.615,9.7-3.048,14.629-4.38,13.212-3.692,26.736-6.55,39.945-10.125,13.03-3.642,25.711-8.09,37.428-14.862,12.766-7.378,29.338-20.184,44.332-33.569q-9.465,6.822-19.206,13.251c-22.591,14.994-45.226,22.678-71.872,27.343-21.322,3.733-48.674,5.181-66.508,18.979-14.775,11.431-16.038,31.624-3.046,44.986,30.954,31.838,83.294.958,109.312-21.366A628.92,628.92,0,0,0,278.725,854.4c4.064-4.349,8.654-9.05,13.324-13.994a16.942,16.942,0,0,1,1.417-6.793,316.548,316.548,0,0,0,11.635-32.44c-19.712,30.547-49.118,63.813-72.324,88.054C215.244,907.543,194.558,925.071,170.442,931.263Z"/><path class="cls-1" d="M219.322,989.3c-2.128,10.985-.7,21.737,6.7,31.419a28.223,28.223,0,0,0,5,5.127c-.118-.261-.248-.518-.361-.78-.017-.039-.032-.079-.049-.118a34.561,34.561,0,0,1-7.206-10.9A54.534,54.534,0,0,1,219.322,989.3Z"/><path class="cls-1" d="M371.547,1019.989c-16.123.269-29.312-12.989-37.356-26.965a132.231,132.231,0,0,1-13.563-34.616,136.692,136.692,0,0,0,8.434,33.019c3.932,9.961,9.17,19.382,16.741,26.461a34.476,34.476,0,0,0,12.716,7.851,25.407,25.407,0,0,0,14.395.528,32.5,32.5,0,0,0,13.139-6.834,35.9,35.9,0,0,0,5.868-6.337,33.284,33.284,0,0,1-12.007,5.463A28.726,28.726,0,0,1,371.547,1019.989Z"/><path class="cls-1" d="M329.714,796.942l0,0v0c.04,1.07.06,2.139.081,3.208,3.471,5.681,6.906,11.71,10.332,17.824C336.86,810.867,333.464,803.825,329.714,796.942Z"/><polygon class="cls-1" points="329.712 796.939 329.712 796.94 329.712 796.94 329.712 796.939"/><polygon class="cls-1" points="329.712 796.943 329.712 796.942 329.712 796.94 329.712 796.943"/><path class="cls-1" d="M124.46,812.2a295.2,295.2,0,0,0,130.481-4.131,290.165,290.165,0,0,0,33.133-11.117c.151-.215.3-.431.454-.645-42.706,12.659-86.639,16.6-130.893,8.971-18.24-3.141-42.206-15.259-60.226-6.352A22.743,22.743,0,0,0,84.523,822c.023-.059.027-.121.05-.18,2.3-5.691,8.043-9.278,14.108-10.6a25.157,25.157,0,0,1,5.116-1.148C110.7,809.269,117.636,810.858,124.46,812.2Z"/><path class="cls-1" d="M119.581,850.872c3.657.718,7.3,1.266,10.784,1.736a192.607,192.607,0,0,0,59.488-1.015c30.386-5.366,59.126-17.7,85.666-33.44A110.93,110.93,0,0,1,285.954,800c-30.379,20.244-63.011,36.4-97.346,44.718A209.367,209.367,0,0,1,119.581,850.872Z"/><path class="cls-1" d="M246.862,248.262c3.706,6.417,7.114,13,10.276,19.706q5.085,9.138,9.312,18.755c1.9,4.442,3.64,8.962,5.154,13.559q-2.546-9.951-6.064-19.639A212.951,212.951,0,0,0,252.932,252.4a256.2,256.2,0,0,0-25.856-34.08A283.212,283.212,0,0,1,246.862,248.262Z"/><path class="cls-1" d="M263.157,281.563q-2.85-6.87-6.019-13.595c-.8-1.439-1.6-2.876-2.434-4.3q-3.29-5.559-6.68-11.042c-2.374-3.59-4.663-7.224-7.151-10.74,1.835,3.9,3.841,7.693,5.731,11.55,1.976,3.807,3.935,7.619,5.842,11.452,3.8,7.67,7.6,15.319,10.944,23.153a215.6,215.6,0,0,1,8.842,23.925,155.786,155.786,0,0,1,5.25,25.057c.018-2.148.009-4.3-.046-6.463l-.481-6.464-.963-6.416-1.29-6.366c-.848-3.732-1.9-7.408-3.1-11.037,1.4,5.465,2.57,10.981,3.456,16.543A306.493,306.493,0,0,0,263.157,281.563Z"/><path class="cls-1" d="M240.929,194.069c.907,1.382,1.8,2.781,2.653,4.212a58.472,58.472,0,0,0-12.121-21.12,132.207,132.207,0,0,1,7.66,13.284C239.736,191.648,240.332,192.859,240.929,194.069Z"/><path class="cls-1" d="M274.67,126.818q-.411-1.127-.828-2.258.332,3.339.753,6.666,1.059,2.892,2.114,5.765,1.663,4.554,3.261,9.132c-.444-2.626-.865-5.254-1.243-7.887Q276.74,132.514,274.67,126.818Z"/><path class="cls-1" d="M295.526,41.041a39.983,39.983,0,0,0-4.233,3.623c.3-.094.612-.176.919-.261C293.262,43.236,294.36,42.107,295.526,41.041Z"/><path class="cls-1" d="M320,331.953c-.032.773-.055,1.546-.091,2.319q-.187,3.7-.461,7.4.31,5.069.548,10.142.586-3.163,1.072-6.346Q320.6,338.707,320,331.953Z"/><path class="cls-1" d="M432.791,152.763l-.1.043a42.934,42.934,0,0,0-3.865,1.989c-1.18,1.957-2.31,3.946-3.4,5.946.637-.526,1.3-1.021,1.957-1.516A74.265,74.265,0,0,1,432.791,152.763Z"/><path class="cls-1" d="M380.762,287.39c.919-2.067,1.812-4.144,2.7-6.223.268-1.478.551-2.953.836-4.428C383.092,280.279,381.9,283.823,380.762,287.39Z"/><path class="cls-1" d="M372.733,319.5c2.6-5.818,5.065-11.664,7.481-17.518.57-4.426,1.239-8.839,1.954-13.244A227.5,227.5,0,0,0,372.733,319.5Z"/><path class="cls-1" d="M316.24,783.332a103.982,103.982,0,0,1,6.787,16.489q-.036-1.6-.094-3.17A92.925,92.925,0,0,0,316.24,783.332Z"/><path class="cls-1" d="M335.862,789.144c.071.02.14.045.211.066l-.02-.024C335.989,789.173,335.926,789.156,335.862,789.144Z"/><path class="cls-1" d="M214.724,709.963c9.672,8.74,19.989,17.322,30.851,25.323-7.867-6.134-15.555-12.517-23.178-19Q218.558,713.136,214.724,709.963Z"/><path class="cls-1" d="M288.051,778.139c.035-.019.068-.041.1-.06l-.9-.14-.136.055C287.43,778.047,287.741,778.09,288.051,778.139Z"/><path class="cls-1" d="M285.006,778.814a59.581,59.581,0,0,1-10.388,2.669c-.877.159-1.761.284-2.643.421,1.379.319,2.77.6,4.173.843a57.219,57.219,0,0,0,10.481-3.876C286.088,778.857,285.547,778.834,285.006,778.814Z"/><path class="cls-1" d="M365.843,796.992a183.233,183.233,0,0,0-20.3-7.64c10.743,4.268,21.489,8.946,32.2,13.909A110.2,110.2,0,0,0,365.843,796.992Z"/><path class="cls-1" d="M357.434,784.033c.27.077.543.147.814.223,3.761.621,7.622,1.141,11.547,1.58Z"/><path class="cls-1" d="M320.987,802.337c.722,1.408,1.417,2.824,2.1,4.245,0-.4,0-.812,0-1.216C322.416,804.336,321.721,803.323,320.987,802.337Z"/><path class="cls-1" d="M325.557,809.445c.369,1.728.7,3.462.987,5.2.012.034.027.067.04.1,1.13,2.837,2.142,5.717,3.068,8.624-.3-2.9-.72-5.792-1.278-8.653-.1-.21-.193-.423-.294-.632Q326.868,811.74,325.557,809.445Z"/><path class="cls-1" d="M237.863,726.011q-5.228-5.28-9.907-11.025c-1.769-1.438-3.513-2.9-5.265-4.364A145.346,145.346,0,0,0,237.863,726.011Z"/><path class="cls-1" d="M178.871,324.077q2.582,2.94,4.98,6.019c-.8-1.208-1.627-2.4-2.5-3.554Q180.131,325.291,178.871,324.077Z"/></svg>
