<svg id="Capa_1" data-name="Capa 1" xmlns="http://www.w3.org/2000/svg" viewBox="0 0 1080 849.96"><path d="M1008.736,812.456c-5.13-8.364-10.232-15.708-14.337-23.572-9.7-18.581-10.507-39.029-11.764-59.389-1.835-29.712-5.767-58.99-16.6-87.089-14.047-36.44-40.4-59.028-76.962-70.754-6.357-2.038-12.664-4.234-19.626-6.569,1.218-1.385,1.754-2.551,2.331-2.572,40.044-1.437,77.437,4.969,109.931,31.5,31.8,25.959,46.552,60.152,52.865,99.113,5,30.885,8.434,62.053,14.385,92.742,2.258,11.642,9.539,22.33,14.693,33.377,1.434,3.076,3.45,5.88,6.313,10.675-11.921,1.4-22.024,3.46-32.156,3.617-32,.5-64.12,1.858-96-.161-25.61-1.622-51.125-6.766-76.356-11.941-61.141-12.54-113.6-42.542-158.755-84.683-50.276-46.915-83.075-104.494-101.44-171.063-13.017-47.182-16.173-94.929-13.079-143.023,4.63-71.98,23.409-140.323,58.185-204.054,22.956-42.069,50.363-80.421,85.674-113.124A325.34,325.34,0,0,1,877.218,28.141c61.641-16.1,124.171-14.378,186.871-10.724a18.815,18.815,0,0,1,4.678,1.079c.484.159.759.95,1.253,1.617-35.26,20.908-40.188,57.265-47.185,92.614-9.324,47.1-10.22,95.715-25.55,141.752-16.622,49.914-50.838,81.348-100.806,96.142a46.533,46.533,0,0,1-19.775,1.158c8.772-5.466,18.6-9.774,26.122-16.613,24.419-22.192,36.61-51.562,42.607-83.02,7.907-41.475,13.542-83.381,20.307-125.077,5.28-32.548,12.859-64.143,38.66-87.688.592-.54.647-1.671,1.792-4.879-20.749,2.016-40.273,3.519-59.691,5.894-27.584,3.374-54.789,8.494-80.789,18.946-71.352,28.684-123.633,78.539-161.8,144.424-23.173,40-39.737,82.794-50.918,127.315C645.4,361.3,642.247,392.64,637.242,423.5c-.5,3.091-.067,6.333-.067,10.843,10.96,0,21.188.006,31.417,0,57.289-.039,114.578.063,171.866-.283,8.247-.05,11.357,1.861,11.262,10.76-.092,8.665-2.915,11.1-11.266,11.038-63.393-.488-126.79-.564-190.184-.874-13.093-.064-13.341-.262-13.08,12.41,1.729,83.81,24.952,160.706,76.989,227.13C758.108,750.6,815.7,786.486,885.3,802.722c38.338,8.944,77.347,10.632,116.485,10.965C1003.854,813.7,1005.936,812.972,1008.736,812.456Z"/><path d="M11.4,20.9c7.114-1.528,11.463-3.1,15.875-3.309,37.79-1.768,75.446-2.22,113.314,1.441,45.836,4.432,88.525,18,128.628,39.39,42.368,22.6,78.2,53.6,108.417,91.124,30.869,38.333,55.7,80.1,73.41,126.016,26.624,69.028,38.824,140.343,34.842,214.474a367.105,367.105,0,0,1-27.322,120.174c-31.463,76.888-84.993,134.185-156.976,174.934-30.006,16.986-61.877,28.83-95.159,37.43-56.847,14.689-114.46,14.192-172.341,9.518-7.575-.611-15.165-1.03-24.112-1.63,5.465-10.758,10.629-19.949,14.907-29.535,10.717-24.022,12.864-49.84,15-75.61,2.08-25.138,4.534-50.266,14.571-73.746,18.677-43.693,50.354-73.649,96.876-84.793,18.948-4.539,39.2-3.62,58.863-5.185l.543,4.057q-9.494,2.719-18.989,5.437c-48.378,13.744-78.321,45.525-88.584,94.328-5.089,24.2-6.359,49.205-9.223,73.861-3.009,25.911-4.559,52.246-25.519,74.29,9.872,0,17.141.063,24.409-.01,72.819-.73,142.171-14.774,203-57.1,58.764-40.888,100.349-95.507,123.522-163.532a433.062,433.062,0,0,0,23.107-125.309c.464-13.478.021-13.124-13.406-13q-91.246.823-182.5,1.25c-1.932.012-3.883-.577-5.8-.45-8.856.587-12.926-2.7-12.338-12.292.625-10.177,7.468-8.874,13.825-8.876q89.83-.027,179.662.049c3.56,0,7.133-.3,10.679-.092,6.217.36,8.923-2.025,8.127-8.527-2.514-20.531-3.4-41.369-7.445-61.583-10.3-51.5-26.341-101.324-51.542-147.58-32.3-59.287-77.28-106.442-137.4-138.406-38.988-20.729-80.66-32.5-124.28-37.84-15.22-1.865-30.509-3.164-46.811-4.829.969,2.139,1.186,3.519,1.991,4.262C101.471,63.9,108.3,96.75,114.243,129.56c7.358,40.606,12.794,81.56,20.114,122.174,4.15,23.021,13.334,44.541,25.768,64.415,9.383,15,22.364,25.738,39.847,30.419a14.275,14.275,0,0,1,6.177,3.887c-19.924,3.053-37.966-2.54-54.991-11.947-43.147-23.842-67.221-61.776-76.7-108.907-6.415-31.888-9.345-64.46-14.875-96.547C55.755,110.862,51.3,88.638,44.958,67.067,40.393,51.544,30.712,38.179,17.669,27.809,15.861,26.372,14.509,24.361,11.4,20.9Z"/><path d="M578.719,353.967c-1.489,18.048-3.277,39.723-13.939,66.336-8.523,21.273-12.21,30.84-16.249,49.506-1.686,7.79,3.1,17.122,5.441,25.618,9.17,33.218,19.5,66.153,27.418,99.663,3.84,16.259,2.12,33.284-3.846,49.664-6.967,19.127-23.241,26.661-38.515,27.133-17.532.541-33.595-11.733-40.062-28.485-6.791-17.592-6.3-35.494-2.961-53.469,6.7-36.033,18.352-70.6,33.034-104.069,4.35-9.917,1.5-18.068-1.82-26.9-13.655-36.385-24.13-73.581-27.147-112.511-1.219-15.719,1.031-30.959,9.038-44.939,6.745-11.779,16.06-18.573,30.444-18.35a35.888,35.888,0,0,1,20.494,6.277c4.849,3.421,8.528,8.043,11.74,14.7C580.635,322.47,579.6,343.255,578.719,353.967Zm-36.9,138.291-4.513-.677c-2.794,8.7-5.968,17.3-8.31,26.119-6.776,25.525-14.434,50.911-19.287,76.812-2.493,13.31-1.04,27.792.971,41.4a30.323,30.323,0,0,0,29.65,25.947c12.188.262,23.382-8.178,26.457-23.917,2.733-13.991,5.04-29.328,2.127-42.911C561.491,560.426,551.048,526.472,541.815,492.258Zm-4.534-35.07,5.486.172c7.333-29.35,15.266-58.567,21.792-88.1,4.568-20.669,4.89-41.65-2.967-61.968-3.762-9.73-10.323-16.412-21.032-17.626-8.591-.974-16.455,5.219-21.452,15.08-9.152,18.058-8.571,37.507-4.98,56.019C520.415,393.186,529.416,425.077,537.281,457.188Z"/></svg>